<svg xmlns="http://www.w3.org/2000/svg" viewBox="0 0 127.51 127.51"><defs><style>.cls-1{fill:#f5f1f3;}.cls-2{fill:#1d1d1b;}</style></defs><title>iconFichier 11</title><g id="Calque_2" data-name="Calque 2"><g id="petit_logo" data-name="petit logo"><circle class="cls-1" cx="63.76" cy="63.76" r="63.76"/></g><g id="petit_logo_lettre" data-name="petit logo lettre"><path class="cls-2" d="M24.49,73.22a5,5,0,0,1,1-3.2,7.74,7.74,0,0,1,2.54-2,12.16,12.16,0,0,1,3.23-1.08,17.54,17.54,0,0,1,3.24-.33,3.8,3.8,0,0,1,1.16.33,6.47,6.47,0,0,1,1.08.5v.25a1.12,1.12,0,0,1-.62,1.08,6.38,6.38,0,0,1-1.62.54c-.66.14-1.37.26-2.12.37a8.66,8.66,0,0,0-2.11.58,4.16,4.16,0,0,0-1.62,1.16,3.13,3.13,0,0,0-.62,2.08A5.63,5.63,0,0,0,29.8,77.2a20,20,0,0,0,4.44,3.57,48.26,48.26,0,0,0,6,3.12q3.32,1.44,6.47,2.49A54.53,54.53,0,0,0,52.46,88a15.73,15.73,0,0,0,3.9.46,3.2,3.2,0,0,0,.87-.21l1.29-.45,1.29-.5q.61-.25.87-.33c0-.11,0-.35,0-.71s0-.59,0-.71a5,5,0,0,0-.25-1.7,5.14,5.14,0,0,0-.7-1.33,8.78,8.78,0,0,0-1.16-1.24c-.48-.42-1-.93-1.62-1.54l-2.25-2.24c-1-1-2.13-2.11-3.4-3.36l-4-3.9q-2.13-2-4.11-3.9C41.92,65,40.76,63.94,39.76,63s-1.74-1.7-2.24-2.2a30.29,30.29,0,0,1-3.78-6.06,16.42,16.42,0,0,1-1.37-6.89,14.29,14.29,0,0,1,1.37-6.31,10.87,10.87,0,0,1,4.53-4.65h3.57a15.27,15.27,0,0,1,4.89.87,17.28,17.28,0,0,1,4.73,2.45A13.81,13.81,0,0,1,55,44a9,9,0,0,1,1.41,4.9,8.63,8.63,0,0,1-.08,1,.68.68,0,0,1-.75.7,3.34,3.34,0,0,1-2.2-.79,10.16,10.16,0,0,1-1.82-2c-.58-.83-1.15-1.7-1.7-2.62A22.6,22.6,0,0,0,48,42.59a8.66,8.66,0,0,0-2.41-2,6.07,6.07,0,0,0-3.11-.79,5.14,5.14,0,0,0-2.66.79,9.05,9.05,0,0,0-2.32,1.95,10.53,10.53,0,0,0-1.62,2.57,6.53,6.53,0,0,0-.62,2.66,14.87,14.87,0,0,0,.5,3.77,17.76,17.76,0,0,0,1.41,3.74,24.36,24.36,0,0,0,2.11,3.4,27.39,27.39,0,0,0,2.54,3L61.43,80.44a8.75,8.75,0,0,1,2.11,2.91,8.08,8.08,0,0,1,.87,3.48,4.53,4.53,0,0,1-.58,2.33,5,5,0,0,1-1.49,1.62,6.45,6.45,0,0,1-2.12.91,10.59,10.59,0,0,1-2.45.29H57A18.36,18.36,0,0,1,55,91.52c-.94-.25-1.91-.48-2.9-.7l-2.79-.63-1.61-.37c-.89-.28-2.07-.7-3.53-1.29s-3.06-1.27-4.77-2.07-3.46-1.72-5.23-2.74a34.52,34.52,0,0,1-4.78-3.28,19.88,19.88,0,0,1-3.48-3.61A6.12,6.12,0,0,1,24.49,73.22Z"/><path class="cls-2" d="M77.94,91.31c-.33-.27-1-.76-1.86-1.45s-1.87-1.44-2.87-2.24-1.93-1.53-2.82-2.2S68.9,84.29,68.56,84a13,13,0,0,1-1.2-1,2.12,2.12,0,0,1-.46-1.53,3.71,3.71,0,0,1,2.16.62c.61.41,1.21.86,1.79,1.33a16.14,16.14,0,0,0,1.82,1.28,4.14,4.14,0,0,0,2.2.59c0-.56,0-1.54,0-3s.06-2.92.09-4.53,0-3.11.08-4.52,0-2.42,0-3q0-.33-.12-1.62c-.09-.86-.17-1.77-.25-2.74s-.17-1.86-.25-2.69-.13-1.36-.13-1.58,0-.43.09-1,.14-1.06.25-1.62.2-1.07.29-1.57a8.58,8.58,0,0,0,.12-.92V52.8c0-.11,0-.44-.12-1s-.18-1.16-.29-1.82-.2-1.28-.25-1.83-.09-.91-.09-1.08,0-.61.09-1.16.11-1.13.16-1.74.13-1.19.21-1.75a3.11,3.11,0,0,1,.29-1.08A7.51,7.51,0,0,1,77,40a5.57,5.57,0,0,1,1.91-.25,19.53,19.53,0,0,1,6.89,1.28,27.42,27.42,0,0,1,6.47,3.53,32.58,32.58,0,0,1,5.61,5.23,41.31,41.31,0,0,1,4.4,6.31A34.84,34.84,0,0,1,105.25,63a23,23,0,0,1,1.08,6.76,21.46,21.46,0,0,1-1.53,7.72,26.09,26.09,0,0,1-4.19,7.22A23.42,23.42,0,0,1,94.42,90a14.58,14.58,0,0,1-7.51,2.07,14.76,14.76,0,0,1-2.24-.16l-2.2-.34c-.75-.11-1.5-.2-2.24-.29A9.26,9.26,0,0,0,77.94,91.31Zm2.25-3.65c0,.06.08.18.24.38a1.22,1.22,0,0,0,.5.37c.11.06.35.15.71.29l1.24.46c.47.16.93.3,1.37.41l.92.25h.49a9.62,9.62,0,0,0,4.24-1,20.25,20.25,0,0,0,4.15-2.69,23.57,23.57,0,0,0,3.65-3.86,34.7,34.7,0,0,0,2.91-4.53,28.15,28.15,0,0,0,2-4.65,14.09,14.09,0,0,0,.74-4.31,15.85,15.85,0,0,0-1-5.23,31.55,31.55,0,0,0-2.7-5.65,40.22,40.22,0,0,0-3.94-5.43,33.93,33.93,0,0,0-4.78-4.61,25.9,25.9,0,0,0-5.14-3.2,12.2,12.2,0,0,0-5.11-1.2c-.38,0-.77,0-1.16,0a4.5,4.5,0,0,0-1.08.21,2,2,0,0,0-.87.58,1.67,1.67,0,0,0-.37,1.16v2.82c0,1,0,1.9.12,2.87a21.27,21.27,0,0,0,.42,2.82,9.85,9.85,0,0,0,1,2.61Z"/></g></g></svg>