<?xml version="1.0" encoding="UTF-8" standalone="no"?>
<svg
   xmlns:dc="http://purl.org/dc/elements/1.1/"
   xmlns:cc="http://creativecommons.org/ns#"
   xmlns:rdf="http://www.w3.org/1999/02/22-rdf-syntax-ns#"
   xmlns:svg="http://www.w3.org/2000/svg"
   xmlns="http://www.w3.org/2000/svg"
   viewBox="0 0 1122.52 793.70135"
   height="793.70135"
   width="1122.52"
   xml:space="preserve"
   id="svg2"
   version="1.1"><metadata
     id="metadata8"><rdf:RDF><cc:Work
         rdf:about=""><dc:format>image/svg+xml</dc:format><dc:type
           rdf:resource="http://purl.org/dc/dcmitype/StillImage" /></cc:Work></rdf:RDF></metadata><defs
     id="defs6"><clipPath
       id="clipPath18"
       clipPathUnits="userSpaceOnUse"><path
         id="path16"
         d="M 0,595.276 H 841.89 V 0 H 0 Z" /></clipPath><clipPath
       id="clipPath58"
       clipPathUnits="userSpaceOnUse"><path
         id="path56"
         d="M 0,595.276 H 841.89 V 0 H 0 Z" /></clipPath><clipPath
       id="clipPath106"
       clipPathUnits="userSpaceOnUse"><path
         id="path104"
         d="M 0,595.276 H 841.89 V 0 H 0 Z" /></clipPath><clipPath
       id="clipPath118"
       clipPathUnits="userSpaceOnUse"><path
         id="path116"
         d="M 0,595.276 H 841.89 V 0 H 0 Z" /></clipPath></defs><g
     transform="matrix(1.3333333,0,0,-1.3333333,0,793.70133)"
     id="g10"><g
       id="g12"><g
         clip-path="url(#clipPath18)"
         id="g14"><g
           transform="translate(395.2661,379.0525)"
           id="g20"><path
             id="path22"
             style="fill:none;stroke:#424243;stroke-width:0.82099998;stroke-linecap:butt;stroke-linejoin:miter;stroke-miterlimit:10;stroke-dasharray:none;stroke-opacity:1"
             d="m 0,0 c -2.428,0.385 -4.299,2.5 -4.299,5.032 v 50.109 c 0,2.802 2.293,5.094 5.094,5.094 h 83.606 c 2.803,0 5.095,-2.292 5.095,-5.094 V 5.032 c 0,-2.802 -2.292,-5.094 -5.095,-5.094 H 14.586" /></g><g
           transform="translate(421.563,424.2107)"
           id="g24"><path
             id="path26"
             style="fill:none;stroke:#424243;stroke-width:0.82999998;stroke-linecap:butt;stroke-linejoin:miter;stroke-miterlimit:10;stroke-dasharray:none;stroke-opacity:1"
             d="m 0,0 h -12.938 c -0.699,0 -1.266,-0.566 -1.266,-1.266 v -41.076" /></g><g
           transform="translate(409.8857,381.5461)"
           id="g28"><path
             id="path30"
             style="fill:none;stroke:#424243;stroke-width:0.82999998;stroke-linecap:butt;stroke-linejoin:miter;stroke-miterlimit:10;stroke-dasharray:none;stroke-opacity:1"
             d="m 0,0 h 58.845 c 0.398,0 0.72,0.323 0.72,0.721 v 41.223 c 0,0.398 -0.322,0.721 -0.72,0.721 h -8.792" /></g><g
           transform="translate(408.0801,381.5461)"
           id="g32"><path
             id="path34"
             style="fill:none;stroke:#424243;stroke-width:0.82700002;stroke-linecap:butt;stroke-linejoin:miter;stroke-miterlimit:10;stroke-dasharray:none;stroke-opacity:1"
             d="M 0,0 H -2.658" /></g><g
           transform="translate(398.6479,381.5461)"
           id="g36"><path
             id="path38"
             style="fill:none;stroke:#424243;stroke-width:0.82700002;stroke-linecap:butt;stroke-linejoin:miter;stroke-miterlimit:10;stroke-dasharray:none;stroke-opacity:1"
             d="M 0,0 H -0.917 C -3.025,0 -4.75,1.725 -4.75,3.833 v 47.743 c 0,2.108 1.725,3.833 3.833,3.833 H 79.52 c 2.108,0 3.833,-1.725 3.833,-3.833 V 3.833 C 83.353,1.725 81.628,0 79.52,0 H 11.339" /></g><g
           transform="translate(491.0547,357.1897)"
           id="g40"><path
             id="path42"
             style="fill:none;stroke:#333333;stroke-width:0.73500001;stroke-linecap:butt;stroke-linejoin:miter;stroke-miterlimit:10;stroke-dasharray:none;stroke-opacity:1"
             d="m 0,0 c 0,-2.117 -2.026,-3.833 -4.526,-3.833 -2.501,0 -4.528,1.716 -4.528,3.833 0,2.117 2.027,3.833 4.528,3.833 C -2.026,3.833 0,2.117 0,0 Z" /></g></g></g><g
       transform="translate(468.708,353.3567)"
       id="g44"><path
         id="path46"
         style="fill:none;stroke:#424243;stroke-width:0.81999999;stroke-linecap:butt;stroke-linejoin:miter;stroke-miterlimit:10;stroke-dasharray:none;stroke-opacity:1"
         d="M 0,0 H 32.442" /></g><g
       transform="translate(378.0483,353.3567)"
       id="g48"><path
         id="path50"
         style="fill:none;stroke:#424243;stroke-width:0.81999999;stroke-linecap:butt;stroke-linejoin:miter;stroke-miterlimit:10;stroke-dasharray:none;stroke-opacity:1"
         d="M 0,0 H 2.202" /></g><g
       id="g52"><g
         clip-path="url(#clipPath58)"
         id="g54"><g
           transform="translate(394.1782,372.8464)"
           id="g60"><path
             id="path62"
             style="fill:none;stroke:#333333;stroke-width:0.89700001;stroke-linecap:butt;stroke-linejoin:miter;stroke-miterlimit:10;stroke-dasharray:none;stroke-opacity:1"
             d="m 0,0 c -0.183,0.619 -0.281,1.27 -0.281,1.941 0,3.086 1.807,5.676 4.751,6.759" /></g><g
           transform="translate(409.3643,377.4216)"
           id="g64"><path
             id="path66"
             style="fill:none;stroke:#333333;stroke-width:0.89700001;stroke-linecap:butt;stroke-linejoin:miter;stroke-miterlimit:10;stroke-dasharray:none;stroke-opacity:1"
             d="m 0,0 c 0.316,-0.673 0.709,-1.858 0.709,-2.634 0,-2.555 -1.414,-4.809 -3.565,-6.139" /></g><g
           transform="translate(402.0942,382.156)"
           id="g68"><path
             id="path70"
             style="fill:#f5f1f3;fill-opacity:1;fill-rule:nonzero;stroke:#333333;stroke-width:0.89700001;stroke-linecap:butt;stroke-linejoin:miter;stroke-miterlimit:10;stroke-dasharray:none;stroke-opacity:1"
             d="M 0,0 C 1.828,0 3.406,-0.555 4.761,-1.492" /></g><g
           transform="translate(407.1431,352.093)"
           id="g72"><path
             id="path74"
             style="fill:none;stroke:#333333;stroke-width:0.89700001;stroke-linecap:butt;stroke-linejoin:miter;stroke-miterlimit:10;stroke-dasharray:none;stroke-opacity:1"
             d="M 0,0 C -2.889,-2.812 -7.27,-4.648 -12.204,-4.775" /></g><g
           transform="translate(383.7544,350.3855)"
           id="g76"><path
             id="path78"
             style="fill:none;stroke:#333333;stroke-width:0.89700001;stroke-linecap:butt;stroke-linejoin:miter;stroke-miterlimit:10;stroke-dasharray:none;stroke-opacity:1"
             d="m 0,0 c -3.493,2.342 -5.706,5.816 -5.706,9.694 0,6.923 7.052,12.559 15.849,12.764 0.164,0.003 0.329,0.005 0.494,0.005 4.805,0 9.126,-1.62 12.116,-4.2 1.827,-1.576 3.157,-3.509 3.798,-5.65" /></g><g
           transform="translate(394.4634,356.4616)"
           id="g80"><path
             id="path82"
             style="fill:none;stroke:#333333;stroke-width:0.70599997;stroke-linecap:butt;stroke-linejoin:miter;stroke-miterlimit:10;stroke-dasharray:none;stroke-opacity:1"
             d="m 0,0 c 3.06,-2.409 0.882,-12.215 -4.739,-17.938 -0.975,-0.993 -4.337,-4.322 -9.307,-4.738 -0.591,-0.05 -5.649,-0.473 -7.023,2.115 -0.55,1.037 -0.571,2.674 0.169,3.3 0.363,0.307 0.679,0.177 1.946,0.508 1.128,0.294 1.883,0.491 1.947,0.846 0.143,0.805 -3.429,1.589 -3.385,2.623 0.018,0.43 0.663,0.965 3.131,1.523" /></g><g
           transform="translate(409.2515,376.5227)"
           id="g84"><path
             id="path86"
             style="fill:none;stroke:#333333;stroke-width:0.70599997;stroke-linecap:butt;stroke-linejoin:miter;stroke-miterlimit:10;stroke-dasharray:none;stroke-opacity:1"
             d="M 0,0 0.814,6.511" /></g><g
           transform="translate(397.6611,380.259)"
           id="g88"><path
             id="path90"
             style="fill:none;stroke:#333333;stroke-width:0.70599997;stroke-linecap:butt;stroke-linejoin:miter;stroke-miterlimit:10;stroke-dasharray:none;stroke-opacity:1"
             d="M 0,0 3.846,4.879" /></g><g
           transform="translate(404.8145,379.0237)"
           id="g92"><path
             id="path94"
             style="fill:none;stroke:#333333;stroke-width:0.70599997;stroke-linecap:butt;stroke-linejoin:miter;stroke-miterlimit:10;stroke-dasharray:none;stroke-opacity:1"
             d="M 0,0 5.251,4.01" /></g><g
           transform="translate(402.9883,379.5417)"
           id="g96"><path
             id="path98"
             style="fill:none;stroke:#333333;stroke-width:0.70599997;stroke-linecap:butt;stroke-linejoin:miter;stroke-miterlimit:10;stroke-dasharray:none;stroke-opacity:1"
             d="M 0,0 -1.481,5.597" /></g></g></g><g
       id="g100"><g
         clip-path="url(#clipPath106)"
         id="g102"><g
           transform="translate(407.1372,346.7331)"
           id="g108"><path
             id="path110"
             style="fill:none;stroke:#333333;stroke-width:0.75999999;stroke-linecap:butt;stroke-linejoin:miter;stroke-miterlimit:10;stroke-dasharray:none;stroke-opacity:1"
             d="m 0,0 v 12.096 c 0,2.383 1.95,4.333 4.333,4.333 h 52.682 c 2.383,0 4.333,-1.95 4.333,-4.333 V 0" /></g></g></g><g
       id="g112"><g
         clip-path="url(#clipPath118)"
         id="g114"><g
           transform="translate(462.4072,415.8112)"
           id="g120"><path
             id="path122"
             style="fill:none;stroke:#333333;stroke-width:0.89700001;stroke-linecap:butt;stroke-linejoin:miter;stroke-miterlimit:10;stroke-dasharray:none;stroke-opacity:1"
             d="m 0,0 c 0,-9.996 -9.696,-18.1 -21.656,-18.1 -11.961,0 -21.657,8.104 -21.657,18.1 0,9.996 9.696,18.1 21.657,18.1 C -9.696,18.1 0,9.996 0,0 Z" /></g><g
           transform="translate(460.8643,413.3449)"
           id="g124"><path
             id="path126"
             style="fill:#333333;fill-opacity:1;fill-rule:nonzero;stroke:none"
             d="m 0,0 c 0,-9.951 -9.108,-18.019 -20.345,-18.019 -11.237,0 -20.345,8.068 -20.345,18.019 0,9.952 9.108,18.019 20.345,18.019 C -9.108,18.019 0,9.952 0,0" /></g><g
           transform="translate(465.7705,410.5373)"
           id="g128"><path
             id="path130"
             style="fill:#333333;fill-opacity:1;fill-rule:nonzero;stroke:none"
             d="m 0,0 c 0,-4.23 -2.304,-7.659 -5.146,-7.659 -2.842,0 -5.146,3.429 -5.146,7.659 0,4.23 2.304,7.659 5.146,7.659 C -2.304,7.659 0,4.23 0,0" /></g><g
           transform="translate(424.959,410.2141)"
           id="g132"><path
             id="path134"
             style="fill:#333333;fill-opacity:1;fill-rule:nonzero;stroke:none"
             d="m 0,0 c 0,-4.051 -2.304,-7.336 -5.146,-7.336 -2.842,0 -5.146,3.285 -5.146,7.336 0,4.051 2.304,7.335 5.146,7.335 C -2.304,7.335 0,4.051 0,0" /></g><g
           transform="translate(455.7393,376.676)"
           id="g136"><path
             id="path138"
             style="fill:#333333;fill-opacity:1;fill-rule:nonzero;stroke:none"
             d="m 0,0 h -30.44 c -2.819,0 -5.125,2.306 -5.125,5.125 v 31.773 c 0,2.819 2.306,5.125 5.125,5.125 H 0 c 2.818,0 5.125,-2.306 5.125,-5.125 V 5.125 C 5.125,2.306 2.818,0 0,0" /></g><g
           transform="translate(454.8066,379.1692)"
           id="g140"><path
             id="path142"
             style="fill:none;stroke:#333333;stroke-width:0.903;stroke-linecap:butt;stroke-linejoin:miter;stroke-miterlimit:10;stroke-dasharray:none;stroke-opacity:1"
             d="M 0,0 C 12.55,-0.436 19.863,-27.501 27.194,-23.038" /></g><g
           transform="translate(413.1533,362.8235)"
           id="g144"><path
             id="path146"
             style="fill:none;stroke:#333333;stroke-width:0.903;stroke-linecap:butt;stroke-linejoin:miter;stroke-miterlimit:10;stroke-dasharray:none;stroke-opacity:1"
             d="M 0,0 C 0,8.702 5.146,15.743 11.506,15.743" /></g></g></g></g></svg>