<?xml version="1.0" encoding="UTF-8" standalone="no"?>
<!-- Created with Inkscape (http://www.inkscape.org/) -->

<svg
   xmlns:dc="http://purl.org/dc/elements/1.1/"
   xmlns:cc="http://creativecommons.org/ns#"
   xmlns:rdf="http://www.w3.org/1999/02/22-rdf-syntax-ns#"
   xmlns:svg="http://www.w3.org/2000/svg"
   xmlns="http://www.w3.org/2000/svg"
   xmlns:sodipodi="http://sodipodi.sourceforge.net/DTD/sodipodi-0.dtd"
   xmlns:inkscape="http://www.inkscape.org/namespaces/inkscape"
   width="210mm"
   height="297mm"
   viewBox="0 0 210 297"
   version="1.1"
   id="svg7889"
   inkscape:version="0.92.4 (5da689c313, 2019-01-14)"
   sodipodi:docname="pissenlit2.svg">
  <defs
     id="defs7883" />
  <sodipodi:namedview
     id="base"
     pagecolor="#ffffff"
     bordercolor="#666666"
     borderopacity="1.0"
     inkscape:pageopacity="0.0"
     inkscape:pageshadow="2"
     inkscape:zoom="0.98994949"
     inkscape:cx="315.8018"
     inkscape:cy="576.40469"
     inkscape:document-units="mm"
     inkscape:current-layer="layer1"
     showgrid="false"
     inkscape:window-width="1920"
     inkscape:window-height="1010"
     inkscape:window-x="0"
     inkscape:window-y="0"
     inkscape:window-maximized="1" />
  <metadata
     id="metadata7886">
    <rdf:RDF>
      <cc:Work
         rdf:about="">
        <dc:format>image/svg+xml</dc:format>
        <dc:type
           rdf:resource="http://purl.org/dc/dcmitype/StillImage" />
        <dc:title></dc:title>
      </cc:Work>
    </rdf:RDF>
  </metadata>
  <g
     inkscape:label="Calque 1"
     inkscape:groupmode="layer"
     id="layer1">
    <path
       inkscape:connector-curvature="0"
       id="path4306"
       style="fill:#646363;fill-opacity:1;fill-rule:nonzero;stroke:none;stroke-width:0.35277775"
       d="m 127.32942,98.83328 c -0.084,0.09208 -0.2219,0.102306 -0.30798,0.02258 -0.0868,-0.07867 -0.0889,-0.217664 -0.006,-0.30868 0.0843,-0.09243 0.2226,-0.102306 0.30868,-0.02293 0.0868,0.07832 0.0889,0.217311 0.005,0.309033" />
    <path
       inkscape:connector-curvature="0"
       id="path4310"
       style="fill:#646363;fill-opacity:1;fill-rule:nonzero;stroke:none;stroke-width:0.35277775"
       d="m 135.61867,103.47382 c -0.0995,0.10866 -0.27128,0.11148 -0.38453,0.008 -0.11394,-0.10336 -0.12594,-0.27516 -0.0272,-0.38276 0.0988,-0.10936 0.27094,-0.11218 0.38524,-0.009 0.11324,0.10336 0.12523,0.27552 0.0265,0.38382" />
    <path
       inkscape:connector-curvature="0"
       id="path4314"
       style="fill:#646363;fill-opacity:1;fill-rule:nonzero;stroke:none;stroke-width:0.35277775"
       d="m 137.18617,104.014 c -0.0928,0.1023 -0.26141,0.10301 -0.37536,-0.001 -0.11359,-0.10407 -0.12982,-0.27199 -0.036,-0.37395 0.0945,-0.10301 0.26247,-0.10195 0.37536,0.001 0.1143,0.10372 0.13017,0.27094 0.036,0.37359" />
    <path
       inkscape:connector-curvature="0"
       id="path4318"
       style="fill:#646363;fill-opacity:1;fill-rule:nonzero;stroke:none;stroke-width:0.35277775"
       d="m 121.04246,117.47346 c 2.51883,-4.21464 5.42854,-8.23489 7.91069,-12.41566 l 0.12629,0.0748 c -2.48602,4.18923 -5.39644,8.20878 -7.91069,12.41636 -2.80952,4.70112 -4.99745,9.91623 -8.69032,14.07654 h 7e-4 l -0.11112,-0.0981 c 3.67171,-4.13455 5.85893,-9.34085 8.67445,-14.05396" />
    <path
       inkscape:connector-curvature="0"
       id="path4322"
       style="fill:#646363;fill-opacity:1;fill-rule:nonzero;stroke:none;stroke-width:0.35277775"
       d="m 128.43114,104.73042 c -1.79176,-1.87995 -2.99826,-5.06342 -3.0928,-7.605537 l 0.14675,-0.0049 c 0.091,2.501195 1.29258,5.666317 3.05294,7.507817 0.0328,0.0349 0.0677,0.0695 0.10372,0.10301 0.84279,0.77294 2.48003,1.03046 4.10386,0.86219 1.62384,-0.16545 3.23215,-0.75565 4.01885,-1.61996 0.0564,-0.0624 0.10901,-0.12558 0.15734,-0.19085 l 0.11853,0.0875 c -0.0519,0.0695 -0.1076,0.13688 -0.16757,0.20285 -0.8322,0.90946 -2.4638,1.49613 -4.11233,1.66652 -1.64783,0.16757 -3.31435,-0.0794 -4.21781,-0.90064 -0.0385,-0.0349 -0.0755,-0.0709 -0.11148,-0.10795" />
    <path
       inkscape:connector-curvature="0"
       id="path4326"
       style="fill:#646363;fill-opacity:1;fill-rule:nonzero;stroke:none;stroke-width:0.35277775"
       d="m 128.20378,104.50976 c -1.18498,-1.4351 -1.61361,-4.13491 -1.10102,-5.84165 l 0.1404,0.04304 c -0.50165,1.64571 -0.0727,4.32929 1.07421,5.70406 0.0822,0.0988 0.16863,0.18944 0.25788,0.27164 1.81469,1.68028 5.34106,0.0268 6.78498,-1.45274 l 0.10512,0.10337 c -1.48096,1.50071 -5.03555,3.21874 -6.98888,1.45767 -0.0952,-0.0861 -0.18662,-0.18168 -0.27269,-0.28539" />
    <path
       inkscape:connector-curvature="0"
       id="path4330"
       style="fill:#646363;fill-opacity:1;fill-rule:nonzero;stroke:none;stroke-width:0.35277775"
       d="m 128.65575,104.76951 c -0.56374,-1.03117 0.32809,-2.87267 0.71191,-3.77649 l 0.13617,0.0579 c -0.39723,0.89958 -1.2386,2.74884 -0.71931,3.64631 0.0702,0.12453 0.15063,0.22648 0.24094,0.30868 0.57362,0.53517 1.61467,0.25965 2.64795,-0.26141 1.03153,-0.51787 2.03694,-1.25694 2.5527,-1.57127 l 0.0765,0.12594 c -0.50517,0.30727 -1.51765,1.05199 -2.56293,1.57692 -1.04245,0.51999 -2.13536,0.84667 -2.8134,0.23883 -3.5e-4,-7.1e-4 -0.002,-0.001 -0.002,-0.002 -0.1016,-0.0928 -0.19156,-0.20638 -0.26882,-0.3429" />
    <path
       inkscape:connector-curvature="0"
       id="path4334"
       style="fill:#646363;fill-opacity:1;fill-rule:nonzero;stroke:none;stroke-width:0.35277775"
       d="m 112.30602,131.80163 c -0.11641,-0.11359 -0.11959,-0.29986 -0.006,-0.41733 0.14958,-0.15346 0.29563,-0.30904 0.44027,-0.46567 0.87524,-0.95956 1.63971,-1.99849 2.16676,-3.16936 l -3.5e-4,8e-4 c 0.067,-0.14888 0.242,-0.2152 0.39017,-0.14782 0.14816,0.0663 0.21413,0.2406 0.14746,0.38912 -0.56127,1.24671 -1.36631,2.33538 -2.26907,3.32422 -0.14852,0.16263 -0.29915,0.32173 -0.45226,0.47978 -0.11077,0.11395 -0.29245,0.11959 -0.40922,0.0116 -0.003,-0.001 -0.005,-0.003 -0.007,-0.005" />
    <path
       inkscape:connector-curvature="0"
       id="path4338"
       style="fill:#646363;fill-opacity:1;fill-rule:nonzero;stroke:none;stroke-width:0.35277775"
       d="m 125.84733,97.157726 c -0.12736,0.359833 -0.52212,0.547511 -0.88265,0.419453 -0.35984,-0.127706 -0.54787,-0.52317 -0.41946,-0.88265 0.12736,-0.359833 0.52282,-0.547864 0.88265,-0.419806 0.35984,0.127706 0.54751,0.522817 0.41946,0.883003" />
    <path
       inkscape:connector-curvature="0"
       id="path4342"
       style="fill:#646363;fill-opacity:1;fill-rule:nonzero;stroke:none;stroke-width:0.35277775"
       d="m 130.28322,101.43258 c -0.12805,0.36019 -0.52281,0.54786 -0.88335,0.41945 -0.35948,-0.1277 -0.54787,-0.52281 -0.41945,-0.88265 0.12805,-0.35983 0.52281,-0.54786 0.88335,-0.4198 0.35948,0.12806 0.54716,0.52281 0.41945,0.883" />
    <path
       inkscape:connector-curvature="0"
       id="path4346"
       style="fill:#646363;fill-opacity:1;fill-rule:nonzero;stroke:none;stroke-width:0.35277775"
       d="m 133.52264,103.48053 c -0.23424,-0.30163 -0.17956,-0.73554 0.12242,-0.97014 0.30127,-0.23425 0.73554,-0.17921 0.96978,0.12206 0.23425,0.30198 0.17921,0.73625 -0.12206,0.97014 -0.30162,0.23424 -0.73589,0.17956 -0.97014,-0.12206" />
    <path
       inkscape:connector-curvature="0"
       id="path4306-6"
       style="fill:#646363;fill-opacity:1;fill-rule:nonzero;stroke:none;stroke-width:0.17242096"
       d="m 99.27326,28.485847 c 0.03802,0.04831 0.03529,0.119232 -0.0062,0.158361 -0.04105,0.03956 -0.105419,0.03233 -0.143007,-0.01535 -0.03817,-0.04849 -0.03524,-0.119588 0.0061,-0.158736 0.04089,-0.03959 0.105258,-0.03235 0.143114,0.01591" />
    <path
       inkscape:connector-curvature="0"
       id="path4310-7"
       style="fill:#646363;fill-opacity:1;fill-rule:nonzero;stroke:none;stroke-width:0.17242096"
       d="m 101.86667,24.536752 c 0.0448,0.0572 0.0369,0.144953 -0.0171,0.196516 -0.0539,0.05192 -0.134,0.04779 -0.17839,-0.009 -0.0452,-0.0569 -0.0372,-0.144822 0.0167,-0.196936 0.0539,-0.05157 0.13413,-0.04741 0.17884,0.0094" />
    <path
       inkscape:connector-curvature="0"
       id="path4314-5"
       style="fill:#646363;fill-opacity:1;fill-rule:nonzero;stroke:none;stroke-width:0.17242096"
       d="m 102.20115,23.769851 c 0.0423,0.05341 0.0335,0.139413 -0.0207,0.191302 -0.0543,0.0517 -0.13275,0.04996 -0.1748,-0.004 -0.0425,-0.05432 -0.0329,-0.139892 0.0207,-0.191302 0.0541,-0.05208 0.13228,-0.0502 0.17463,0.004" />
    <path
       inkscape:connector-curvature="0"
       id="path4318-3"
       style="fill:#646363;fill-opacity:1;fill-rule:nonzero;stroke:none;stroke-width:0.17242096"
       d="m 107.54925,32.803141 c -1.81188,-1.535587 -3.51277,-3.258852 -5.31098,-4.77372 l 0.0414,-0.05992 c 1.80192,1.517346 3.50244,3.240928 5.31131,4.77376 2.02103,1.712811 4.31327,3.139391 6.03653,5.270278 l 3e-5,-3.59e-4 -0.0513,0.05081 c -1.71249,-2.118556 -4.00069,-3.544249 -6.02694,-5.260834" />
    <path
       inkscape:connector-curvature="0"
       id="path4322-5"
       style="fill:#646363;fill-opacity:1;fill-rule:nonzero;stroke:none;stroke-width:0.17242096"
       d="m 102.05871,28.276017 c -0.9659,0.801298 -2.502671,1.226452 -3.682831,1.122981 l 0.0057,-0.07511 c 1.161054,0.102836 2.689071,-0.320906 3.635501,-1.108489 0.0179,-0.01463 0.0358,-0.03035 0.0533,-0.04672 0.40287,-0.383548 0.61045,-1.202882 0.62052,-2.040758 0.0114,-0.837727 -0.17444,-1.692873 -0.5314,-2.145512 -0.0258,-0.03248 -0.0522,-0.06307 -0.0797,-0.0916 l 0.0469,-0.0552 c 0.0293,0.0306 0.0575,0.06302 0.0847,0.09753 0.37536,0.478526 0.55828,1.34534 0.54786,2.195945 -0.0117,0.850084 -0.21598,1.684962 -0.64447,2.096558 -0.0182,0.01754 -0.0369,0.03427 -0.0559,0.05037" />
    <path
       inkscape:connector-curvature="0"
       id="path4326-6"
       style="fill:#646363;fill-opacity:1;fill-rule:nonzero;stroke:none;stroke-width:0.17242096"
       d="m 101.94441,28.378762 c -0.72745,0.518496 -1.998578,0.575937 -2.759757,0.212785 l 0.02748,-0.06902 c 0.733566,0.353936 1.997207,0.295358 2.694717,-0.207327 0.0501,-0.03603 0.0967,-0.07465 0.13947,-0.11528 0.87485,-0.824903 0.30132,-2.721338 -0.30446,-3.545741 l 0.0535,-0.04742 c 0.61357,0.844546 1.21541,2.759224 0.29572,3.649986 -0.0449,0.04341 -0.094,0.08432 -0.14668,0.121983" />
    <path
       inkscape:connector-curvature="0"
       id="path4330-2"
       style="fill:#646363;fill-opacity:1;fill-rule:nonzero;stroke:none;stroke-width:0.17242096"
       d="m 102.08892,28.163838 c -0.50714,0.225879 -1.31009,-0.338654 -1.7071,-0.588257 l 0.0339,-0.06612 c 0.39434,0.256173 1.2036,0.795461 1.64653,0.584263 0.0613,-0.02836 0.11286,-0.06326 0.15572,-0.104419 0.27841,-0.260508 0.20736,-0.807685 0.0224,-1.365553 -0.18358,-0.556785 -0.4708,-1.113449 -0.58821,-1.395145 l 0.0624,-0.03148 c 0.1147,0.275877 0.40416,0.836486 0.59026,1.400699 0.18397,0.562476 0.27585,1.139148 -0.0418,1.448555 -3.5e-4,1.34e-4 -5.9e-4,0.001 -7.2e-4,8.73e-4 -0.0484,0.04626 -0.10573,0.08536 -0.17303,0.116592" />
    <path
       inkscape:connector-curvature="0"
       id="path4334-9"
       style="fill:#646363;fill-opacity:1;fill-rule:nonzero;stroke:none;stroke-width:0.17242096"
       d="m 113.6996,38.111941 c -0.0588,0.05257 -0.14507,0.04307 -0.19323,-0.02182 -0.0628,-0.08541 -0.12685,-0.169152 -0.19143,-0.25224 -0.39619,-0.503458 -0.83507,-0.955181 -1.34777,-1.293732 l 3.4e-4,2.2e-4 c -0.0652,-0.04303 -0.0864,-0.136213 -0.0472,-0.20773 0.0387,-0.07158 0.12278,-0.09482 0.18784,-0.05196 0.54592,0.360493 1.00557,0.835897 1.41382,1.355133 0.0672,0.08542 0.13252,0.171707 0.19729,0.259191 0.0466,0.06325 0.0395,0.156228 -0.0168,0.20932 -6.7e-4,0.0014 -0.001,0.0024 -0.003,0.0033" />
    <path
       inkscape:connector-curvature="0"
       id="path4338-1"
       style="fill:#646363;fill-opacity:1;fill-rule:nonzero;stroke:none;stroke-width:0.17242096"
       d="m 98.418594,29.141467 c 0.159435,0.0864 0.224833,0.298849 0.146138,0.475012 -0.07849,0.175833 -0.271462,0.248096 -0.430679,0.161185 -0.159435,-0.0864 -0.224959,-0.299228 -0.146301,-0.475033 0.07849,-0.175833 0.271279,-0.247935 0.430842,-0.161164" />
    <path
       inkscape:connector-curvature="0"
       id="path4342-2"
       style="fill:#646363;fill-opacity:1;fill-rule:nonzero;stroke:none;stroke-width:0.17242096"
       d="m 100.63453,27.135047 c 0.15956,0.08676 0.22495,0.299222 0.14609,0.475366 -0.0785,0.175656 -0.2713,0.248118 -0.43068,0.16118 -0.15939,-0.08675 -0.22495,-0.299221 -0.14626,-0.475389 0.0786,-0.175627 0.27126,-0.247758 0.43085,-0.161157" />
    <path
       inkscape:connector-curvature="0"
       id="path4346-7"
       style="fill:#646363;fill-opacity:1;fill-rule:nonzero;stroke:none;stroke-width:0.17242096"
       d="m 101.75639,25.605736 c -0.1521,0.101419 -0.3497,0.04765 -0.44181,-0.120298 -0.092,-0.167568 -0.0431,-0.38568 0.10888,-0.487123 0.15225,-0.101408 0.35001,-0.04744 0.44183,0.120108 0.0919,0.167743 0.0432,0.38588 -0.10891,0.487304" />
    <path
       inkscape:connector-curvature="0"
       id="path4306-6-0"
       style="fill:#646363;fill-opacity:1;fill-rule:nonzero;stroke:none;stroke-width:0.22807179"
       d="m 203.53046,79.430595 c -0.0653,0.04724 -0.15391,0.03558 -0.19789,-0.02653 -0.0446,-0.06117 -0.0277,-0.149457 0.0367,-0.196185 0.0655,-0.04742 0.15435,-0.03554 0.19845,0.02558 0.0447,0.06097 0.0277,0.149251 -0.0375,0.196273" />
    <path
       inkscape:connector-curvature="0"
       id="path4310-7-9"
       style="fill:#646363;fill-opacity:1;fill-rule:nonzero;stroke:none;stroke-width:0.22807179"
       d="m 208.16781,83.457369 c -0.0772,0.05571 -0.18638,0.03492 -0.24447,-0.04541 -0.0585,-0.08037 -0.0436,-0.190728 0.0331,-0.245863 0.0769,-0.05624 0.18625,-0.03543 0.24504,0.04496 0.0581,0.08033 0.0431,0.190865 -0.0337,0.246443" />
    <path
       inkscape:connector-curvature="0"
       id="path4314-5-3"
       style="fill:#646363;fill-opacity:1;fill-rule:nonzero;stroke:none;stroke-width:0.22807179"
       d="m 209.08906,84.005286 c -0.0722,0.05255 -0.17901,0.03085 -0.23748,-0.04991 -0.0582,-0.08084 -0.0464,-0.189235 0.0264,-0.241446 0.0734,-0.05275 0.17954,-0.03 0.23748,0.04991 0.0587,0.08069 0.0468,0.188615 -0.0264,0.241207" />
    <path
       inkscape:connector-curvature="0"
       id="path4318-3-6"
       style="fill:#646363;fill-opacity:1;fill-rule:nonzero;stroke:none;stroke-width:0.22807179"
       d="m 197.1013,90.4038 c 2.14827,-2.336896 4.51843,-4.499381 6.63904,-6.819669 l 0.0701,0.06392 c -2.12417,2.325133 -4.49468,4.487076 -6.63913,6.820114 -2.39621,2.606647 -4.46649,5.620342 -7.35081,7.768569 l 4.5e-4,9e-5 -0.0575,-0.07666 c 2.86752,-2.134693 4.9362,-5.142899 7.33778,-7.756349" />
    <path
       inkscape:connector-curvature="0"
       id="path4322-5-0"
       style="fill:#646363;fill-opacity:1;fill-rule:nonzero;stroke:none;stroke-width:0.22807179"
       d="m 203.45292,83.308305 c -0.88715,-1.425474 -1.23254,-3.59918 -0.95833,-5.220771 l 0.0935,0.0163 c -0.27107,1.595225 0.0736,3.756662 0.94595,5.15368 0.0162,0.02643 0.0337,0.05297 0.0521,0.0789 0.43192,0.600032 1.43448,0.978161 2.48447,1.085052 1.04965,0.108668 2.14527,-0.0536 2.75684,-0.497339 0.0439,-0.03206 0.0855,-0.06522 0.12468,-0.100128 l 0.0635,0.07097 c -0.042,0.03715 -0.0861,0.0725 -0.13272,0.106394 -0.6463,0.466331 -1.75621,0.623297 -2.82213,0.514516 -1.06511,-0.110437 -2.08758,-0.485778 -2.55155,-1.124363 -0.0198,-0.02715 -0.0385,-0.0548 -0.0563,-0.08298" />
    <path
       inkscape:connector-curvature="0"
       id="path4326-6-6"
       style="fill:#646363;fill-opacity:1;fill-rule:nonzero;stroke:none;stroke-width:0.22807179"
       d="m 203.338,83.138744 c -0.56152,-1.064139 -0.47807,-2.829469 0.0707,-3.842486 l 0.0832,0.04571 c -0.53381,0.975828 -0.61492,2.730914 -0.0696,3.751872 0.0391,0.07333 0.0818,0.142109 0.12757,0.205795 0.92791,1.302094 3.3774,0.718832 4.48584,-0.02799 l 0.0529,0.07927 c -1.13466,0.755353 -3.61051,1.375778 -4.61556,0.0043 -0.049,-0.06697 -0.0943,-0.139486 -0.1351,-0.216509" />
    <path
       inkscape:connector-curvature="0"
       id="path4330-2-2"
       style="fill:#646363;fill-opacity:1;fill-rule:nonzero;stroke:none;stroke-width:0.22807179"
       d="m 203.58997,83.362556 c -0.22135,-0.726819 0.58517,-1.775301 0.9469,-2.296989 l 0.0788,0.05425 c -0.36965,0.517254 -1.14527,1.577272 -0.93448,2.213619 0.0281,0.08801 0.0656,0.163188 0.11195,0.227062 0.29278,0.414146 0.98798,0.376538 1.71053,0.182461 0.72101,-0.192265 1.45456,-0.527974 1.82235,-0.659181 l 0.0319,0.08986 c -0.36016,0.128128 -1.09893,0.466487 -1.82958,0.661414 -0.7282,0.192171 -1.46295,0.255344 -1.81228,-0.218563 -1.2e-4,-4.83e-4 -0.001,-9.32e-4 -0.001,-0.0011 -0.0521,-0.07207 -0.0942,-0.155778 -0.12511,-0.25237" />
    <path
       inkscape:connector-curvature="0"
       id="path4334-9-6"
       style="fill:#646363;fill-opacity:1;fill-rule:nonzero;stroke:none;stroke-width:0.22807179"
       d="m 189.68824,98.325592 c -0.0588,-0.08721 -0.0363,-0.205524 0.051,-0.264966 0.11485,-0.07749 0.22774,-0.156771 0.33989,-0.236916 0.68013,-0.492392 1.30057,-1.049593 1.78805,-1.72149 l -3.1e-4,4.55e-4 c 0.062,-0.08548 0.18147,-0.104414 0.26641,-0.0423 0.0851,0.06143 0.10393,0.180425 0.0422,0.26569 -0.51908,0.715443 -1.17177,1.298765 -1.87317,1.806082 -0.11539,0.08346 -0.23164,0.164337 -0.34933,0.244263 -0.0851,0.05753 -0.20083,0.03726 -0.26056,-0.04643 -0.002,-0.0011 -0.003,-0.0023 -0.004,-0.0043" />
    <path
       inkscape:connector-curvature="0"
       id="path4338-1-1"
       style="fill:#646363;fill-opacity:1;fill-rule:nonzero;stroke:none;stroke-width:0.22807179"
       d="m 202.81247,78.175201 c -0.12791,0.211045 -0.40246,0.277975 -0.61385,0.149528 -0.211,-0.128112 -0.27805,-0.403156 -0.14953,-0.613835 0.12791,-0.211045 0.40294,-0.278103 0.61389,-0.149755 0.211,0.128121 0.27787,0.402889 0.14949,0.614062" />
    <path
       inkscape:connector-curvature="0"
       id="path4342-2-8"
       style="fill:#646363;fill-opacity:1;fill-rule:nonzero;stroke:none;stroke-width:0.22807179"
       d="m 205.05866,81.464131 c -0.12838,0.211174 -0.40293,0.278093 -0.61428,0.149429 -0.21078,-0.128062 -0.2781,-0.402939 -0.14953,-0.613845 0.12834,-0.210946 0.40294,-0.278093 0.61433,-0.149655 0.21073,0.128298 0.27766,0.402849 0.14948,0.614071" />
    <path
       inkscape:connector-curvature="0"
       id="path4346-7-7"
       style="fill:#646363;fill-opacity:1;fill-rule:nonzero;stroke:none;stroke-width:0.22807179"
       d="m 206.84012,83.186182 c -0.10863,-0.221719 -0.017,-0.489198 0.20499,-0.59802 0.22148,-0.108695 0.48915,-0.01678 0.59783,0.204699 0.1086,0.221937 0.0167,0.489603 -0.20475,0.598071 -0.2217,0.108636 -0.48942,0.01696 -0.59806,-0.204759" />
    <path
       inkscape:connector-curvature="0"
       id="path4306-6-9"
       style="fill:#646363;fill-opacity:1;fill-rule:nonzero;stroke:none;stroke-width:0.22807179"
       d="m 31.795283,127.80338 c 0.0569,-0.0571 0.146212,-0.0598 0.199557,-0.006 0.05381,0.0533 0.05123,0.1431 -0.0048,0.19954 -0.05709,0.0573 -0.146676,0.0598 -0.200029,0.006 -0.0539,-0.053 -0.05131,-0.14287 0.0055,-0.19974" />
    <path
       inkscape:connector-curvature="0"
       id="path4310-7-2"
       style="fill:#646363;fill-opacity:1;fill-rule:nonzero;stroke:none;stroke-width:0.22807179"
       d="m 26.572761,124.57148 c 0.06729,-0.0674 0.178369,-0.0643 0.248588,0.006 0.07067,0.07 0.07356,0.18128 0.0067,0.24798 -0.06695,0.0678 -0.178173,0.0648 -0.24908,-0.005 -0.07017,-0.07 -0.07308,-0.1815 -0.0063,-0.24865" />
    <path
       inkscape:connector-curvature="0"
       id="path4314-5-0"
       style="fill:#646363;fill-opacity:1;fill-rule:nonzero;stroke:none;stroke-width:0.22807179"
       d="m 25.575633,124.17821 c 0.06286,-0.0634 0.171749,-0.0591 0.242405,0.0112 0.0704,0.0705 0.07613,0.17935 0.01265,0.24255 -0.06393,0.0638 -0.172415,0.0584 -0.242405,-0.0112 -0.07089,-0.0702 -0.07638,-0.17868 -0.01263,-0.24231" />
    <path
       inkscape:connector-curvature="0"
       id="path4318-3-2"
       style="fill:#646363;fill-opacity:1;fill-rule:nonzero;stroke:none;stroke-width:0.22807179"
       d="m 36.383588,115.94198 c -1.74618,2.65085 -3.739314,5.1651 -5.460841,7.79512 l -0.07948,-0.0519 c 1.724265,-2.63538 3.717836,-5.14914 5.460858,-7.79558 1.947696,-2.95684 3.50848,-6.26326 6.01141,-8.84579 l -4.52e-4,-1e-5 0.06901,0.0665 c -2.488539,2.56648 -4.048602,5.86722 -6.00052,8.83164" />
    <path
       inkscape:connector-curvature="0"
       id="path4322-5-3"
       style="fill:#646363;fill-opacity:1;fill-rule:nonzero;stroke:none;stroke-width:0.22807179"
       d="m 31.250635,123.96333 c 1.104044,1.26495 1.793193,3.35525 1.782287,4.99983 l -0.09492,-10e-4 c 0.01204,-1.61806 -0.674454,-3.69637 -1.759311,-4.9356 -0.02016,-0.0235 -0.04172,-0.0469 -0.06412,-0.0695 -0.522454,-0.52309 -1.572643,-0.73573 -2.626203,-0.67304 -1.0535,0.0609 -2.108976,0.39656 -2.641563,0.93254 -0.03819,0.0387 -0.07392,0.0781 -0.107033,0.11881 l -0.07404,-0.0599 c 0.03544,-0.0434 0.07339,-0.0854 0.113979,-0.12629 0.563243,-0.56384 1.633673,-0.89657 2.703254,-0.95995 1.069049,-0.0616 2.138437,0.14509 2.698713,0.7011 0.02388,0.0236 0.0468,0.0479 0.06888,0.0729" />
    <path
       inkscape:connector-curvature="0"
       id="path4326-6-7"
       style="fill:#646363;fill-opacity:1;fill-rule:nonzero;stroke:none;stroke-width:0.22807179"
       d="m 31.391236,124.11229 c 0.724735,0.96044 0.925153,2.71634 0.545766,3.80418 l -0.08944,-0.0318 c 0.370595,-1.04874 0.169506,-2.79416 -0.532351,-3.71457 -0.05034,-0.0661 -0.10351,-0.12717 -0.15888,-0.1827 -1.124519,-1.13663 -3.44894,-0.16851 -4.423432,0.74622 l -0.06494,-0.0698 c 0.999011,-0.92737 3.343494,-1.93639 4.555269,-0.74365 0.05909,0.0583 0.115408,0.12258 0.168034,0.19208" />
    <path
       inkscape:connector-curvature="0"
       id="path4330-2-5"
       style="fill:#646363;fill-opacity:1;fill-rule:nonzero;stroke:none;stroke-width:0.22807179"
       d="m 31.106669,123.93173 c 0.33492,0.68197 -0.293223,1.84611 -0.566723,2.41901 l -0.0865,-0.0409 c 0.282018,-0.56979 0.877818,-1.74037 0.567818,-2.33473 -0.04179,-0.0824 -0.09088,-0.15058 -0.146885,-0.2062 -0.355344,-0.36189 -1.035536,-0.21341 -1.717666,0.0939 -0.680904,0.30528 -1.351201,0.75417 -1.693217,0.9426 l -0.04579,-0.0836 c 0.334978,-0.18417 1.010006,-0.6365 1.699991,-0.94595 0.688017,-0.30635 1.403157,-0.48641 1.823891,-0.0746 2.04e-4,4.6e-4 0.0011,7.5e-4 0.0011,9.3e-4 0.06303,0.0628 0.117895,0.13868 0.163921,0.22906" />
    <path
       inkscape:connector-curvature="0"
       id="path4334-9-9"
       style="fill:#646363;fill-opacity:1;fill-rule:nonzero;stroke:none;stroke-width:0.22807179"
       d="m 42.431906,106.93497 c 0.07196,0.0767 0.0688,0.19706 -0.0079,0.26972 -0.100955,0.0949 -0.199698,0.19123 -0.297555,0.28831 -0.592459,0.59498 -1.115632,1.24438 -1.489185,1.98569 l 2.25e-4,-5e-4 c -0.04748,0.0943 -0.162391,0.13214 -0.256184,0.0844 -0.09386,-0.047 -0.131494,-0.16144 -0.08418,-0.2555 0.397766,-0.78935 0.948584,-1.4697 1.559655,-2.08282 0.100539,-0.10087 0.202326,-0.19932 0.30569,-0.29707 0.07478,-0.0704 0.19227,-0.069 0.264636,0.004 0.0021,7.8e-4 0.0031,0.002 0.0043,0.004" />
    <path
       inkscape:connector-curvature="0"
       id="path4338-1-2"
       style="fill:#646363;fill-opacity:1;fill-rule:nonzero;stroke:none;stroke-width:0.22807179"
       d="m 32.705099,128.92754 c 0.09246,-0.2288 0.35273,-0.33884 0.581964,-0.24593 0.228805,0.0927 0.339056,0.35342 0.24594,0.58196 -0.09246,0.22881 -0.353186,0.33906 -0.581978,0.24616 -0.228794,-0.0927 -0.338817,-0.35317 -0.245926,-0.58219" />
    <path
       inkscape:connector-curvature="0"
       id="path4342-2-2"
       style="fill:#646363;fill-opacity:1;fill-rule:nonzero;stroke:none;stroke-width:0.22807179"
       d="m 29.961052,126.04091 c 0.09289,-0.22901 0.353187,-0.33905 0.582418,-0.2459 0.228572,0.0926 0.339059,0.35318 0.24593,0.58196 -0.09289,0.22878 -0.353186,0.33905 -0.582431,0.24614 -0.22855,-0.0929 -0.338596,-0.35317 -0.245917,-0.5822" />
    <path
       inkscape:connector-curvature="0"
       id="path4346-7-8"
       style="fill:#646363;fill-opacity:1;fill-rule:nonzero;stroke:none;stroke-width:0.22807179"
       d="m 27.926742,124.62648 c 0.14275,0.20145 0.09513,0.48015 -0.10654,0.62313 -0.201211,0.14277 -0.480143,0.0949 -0.622905,-0.10629 -0.142756,-0.20167 -0.09486,-0.48061 0.106299,-0.62314 0.201433,-0.14275 0.480378,-0.0951 0.623137,0.10631" />
    <path
       inkscape:connector-curvature="0"
       id="path4306-6-97"
       style="fill:#646363;fill-opacity:1;fill-rule:nonzero;stroke:none;stroke-width:0.22807179"
       d="m 144.4811,169.72949 c -0.0507,-0.0626 -0.043,-0.15201 0.0169,-0.19895 0.0589,-0.0475 0.14794,-0.0349 0.19773,0.0272 0.0509,0.0628 0.043,0.15245 -0.016,0.19946 -0.0587,0.0475 -0.14772,0.0349 -0.19785,-0.0279" />
    <path
       inkscape:connector-curvature="0"
       id="path4310-7-3"
       style="fill:#646363;fill-opacity:1;fill-rule:nonzero;stroke:none;stroke-width:0.22807179"
       d="m 140.68349,174.55629 c -0.0591,-0.0747 -0.0439,-0.18449 0.0335,-0.24638 0.0774,-0.0624 0.1884,-0.0527 0.24718,0.0211 0.0599,0.0741 0.0444,0.18431 -0.0331,0.24693 -0.0774,0.0619 -0.18856,0.0523 -0.24778,-0.0217" />
    <path
       inkscape:connector-curvature="0"
       id="path4314-5-6"
       style="fill:#646363;fill-opacity:1;fill-rule:nonzero;stroke:none;stroke-width:0.22807179"
       d="m 140.1808,175.50298 c -0.0558,-0.0697 -0.0395,-0.17732 0.0384,-0.23961 0.078,-0.062 0.18676,-0.0555 0.24244,0.0146 0.0565,0.0705 0.0386,0.17789 -0.0384,0.23961 -0.0778,0.0626 -0.18613,0.0559 -0.2422,-0.0146" />
    <path
       inkscape:connector-curvature="0"
       id="path4318-3-1"
       style="fill:#646363;fill-opacity:1;fill-rule:nonzero;stroke:none;stroke-width:0.22807179"
       d="m 133.20959,163.83895 c 2.43813,2.03265 4.7128,4.29537 7.133,6.30119 l -0.0605,0.0731 c -2.42522,-2.00914 -4.69935,-4.27224 -7.13345,-6.30126 -2.71956,-2.26725 -5.82993,-4.18924 -8.11523,-6.9662 l -7e-5,4.4e-4 0.0738,-0.0611 c 2.27097,2.76085 5.37578,4.68151 8.1024,6.95379" />
    <path
       inkscape:connector-curvature="0"
       id="path4322-5-2"
       style="fill:#646363;fill-opacity:1;fill-rule:nonzero;stroke:none;stroke-width:0.22807179"
       d="m 140.60418,169.83971 c 1.38087,-0.95511 3.53531,-1.40529 5.16828,-1.20988 l -0.0118,0.0942 c -1.60648,-0.19356 -3.74871,0.25534 -5.10186,1.19426 -0.0257,0.0174 -0.0513,0.0362 -0.0763,0.0559 -0.57843,0.46045 -0.90759,1.48014 -0.96354,2.53407 -0.0577,1.05368 0.15737,2.14016 0.63019,2.72954 0.0345,0.042 0.069,0.0825 0.10589,0.11983 l -0.0678,0.0669 c -0.0394,-0.0399 -0.0766,-0.0825 -0.11278,-0.12735 -0.49703,-0.623 -0.70756,-1.72398 -0.6505,-2.79391 0.0588,-1.06921 0.38417,-2.10865 0.99955,-2.60298 0.0262,-0.021 0.0529,-0.041 0.0802,-0.0602" />
    <path
       inkscape:connector-curvature="0"
       id="path4326-6-9"
       style="fill:#646363;fill-opacity:1;fill-rule:nonzero;stroke:none;stroke-width:0.22807179"
       d="m 140.76798,169.71672 c 1.03572,-0.61236 2.80302,-0.61445 3.84141,-0.11537 l -0.0416,0.0854 c -1.00052,-0.48595 -2.75747,-0.48203 -3.75084,0.11209 -0.0714,0.0426 -0.13798,0.0886 -0.19938,0.13738 -1.25566,0.98984 -0.55453,3.40823 0.24506,4.47923 l -0.0766,0.0567 c -0.80938,-1.09677 -1.54891,-3.53969 -0.22771,-4.60994 0.0645,-0.0522 0.13476,-0.10092 0.20972,-0.14541" />
    <path
       inkscape:connector-curvature="0"
       id="path4330-2-3"
       style="fill:#646363;fill-opacity:1;fill-rule:nonzero;stroke:none;stroke-width:0.22807179"
       d="m 140.55663,169.97922 c 0.71526,-0.25626 1.80154,0.49857 2.34012,0.83463 l -0.0504,0.0813 c -0.53453,-0.34418 -1.63085,-1.06758 -2.25625,-0.82625 -0.0865,0.0323 -0.15983,0.0734 -0.22137,0.12281 -0.39949,0.31248 -0.32828,1.00504 -0.0995,1.71736 0.22694,0.71086 0.59776,1.4273 0.74662,1.78831 l -0.0882,0.0361 c -0.1454,-0.35354 -0.51913,-1.07506 -0.74918,-1.79542 -0.2272,-0.71805 -0.32586,-1.44889 0.13059,-1.82074 4.8e-4,-1.4e-4 5.1e-4,-9.3e-4 6.9e-4,-7.3e-4 0.0694,-0.0555 0.15104,-0.10159 0.24601,-0.13718" />
    <path
       inkscape:connector-curvature="0"
       id="path4334-9-1"
       style="fill:#646363;fill-opacity:1;fill-rule:nonzero;stroke:none;stroke-width:0.22807179"
       d="m 124.9383,156.81797 c 0.0843,-0.0629 0.20353,-0.0462 0.26713,0.0381 0.0829,0.11097 0.16759,0.21991 0.25309,0.32803 0.5247,0.65553 1.11132,1.24823 1.80601,1.70263 l -4.7e-4,-2.7e-4 c 0.0884,0.0577 0.11308,0.17618 0.0551,0.26404 -0.0572,0.088 -0.17518,0.11254 -0.26333,0.055 -0.73973,-0.48384 -1.35395,-1.10755 -1.89462,-1.78357 -0.0887,-0.11145 -0.17532,-0.22345 -0.26088,-0.3371 -0.0616,-0.0822 -0.047,-0.19878 0.0338,-0.26251 0.001,-0.002 0.002,-0.003 0.004,-0.004" />
    <path
       inkscape:connector-curvature="0"
       id="path4338-1-9"
       style="fill:#646363;fill-opacity:1;fill-rule:nonzero;stroke:none;stroke-width:0.22807179"
       d="m 145.70028,168.95157 c -0.21698,-0.11754 -0.29709,-0.38855 -0.17907,-0.60588 0.11776,-0.21696 0.38924,-0.29725 0.6059,-0.17907 0.21697,0.11754 0.29725,0.38902 0.17928,0.60592 -0.11776,0.21696 -0.38897,0.29705 -0.60611,0.17903" />
    <path
       inkscape:connector-curvature="0"
       id="path4342-2-4"
       style="fill:#646363;fill-opacity:1;fill-rule:nonzero;stroke:none;stroke-width:0.22807179"
       d="m 142.52391,171.35431 c -0.21713,-0.11801 -0.29725,-0.38902 -0.17898,-0.60632 0.11771,-0.21674 0.38901,-0.29729 0.60589,-0.17907 0.21694,0.11795 0.29725,0.38902 0.17921,0.60637 -0.11795,0.21669 -0.38894,0.29683 -0.60612,0.17902" />
    <path
       inkscape:connector-curvature="0"
       id="path4346-7-78"
       style="fill:#646363;fill-opacity:1;fill-rule:nonzero;stroke:none;stroke-width:0.22807179"
       d="m 140.8901,173.21703 c 0.2162,-0.11923 0.4878,-0.0406 0.60724,0.1758 0.11931,0.21595 0.0404,0.48777 -0.17553,0.60705 -0.21641,0.11922 -0.48822,0.0404 -0.60728,-0.17556 -0.11924,-0.21618 -0.0406,-0.48803 0.17558,-0.60727" />
    <path
       inkscape:connector-curvature="0"
       id="path4306-6-7"
       style="fill:#646363;fill-opacity:1;fill-rule:nonzero;stroke:none;stroke-width:0.17410451"
       d="m 46.139834,184.5194 c 0.03609,0.0519 0.0335,0.12807 -0.0059,0.17011 -0.03897,0.0425 -0.100068,0.0347 -0.135748,-0.0165 -0.03623,-0.0521 -0.03345,-0.12846 0.0058,-0.17052 0.03882,-0.0426 0.09991,-0.0348 0.135849,0.0171" />
    <path
       inkscape:connector-curvature="0"
       id="path4310-7-6"
       style="fill:#646363;fill-opacity:1;fill-rule:nonzero;stroke:none;stroke-width:0.17410451"
       d="m 48.601598,180.27748 c 0.04257,0.0614 0.03499,0.1557 -0.01619,0.21109 -0.05118,0.0558 -0.127199,0.0513 -0.169339,-0.01 -0.04291,-0.0612 -0.03533,-0.15557 0.01585,-0.21155 0.05118,-0.0554 0.127321,-0.0509 0.169768,0.0101" />
    <path
       inkscape:connector-curvature="0"
       id="path4314-5-5"
       style="fill:#646363;fill-opacity:1;fill-rule:nonzero;stroke:none;stroke-width:0.17410451"
       d="m 48.919099,179.45372 c 0.04011,0.0574 0.03177,0.14974 -0.01968,0.20548 -0.05152,0.0555 -0.126009,0.0537 -0.165928,-0.004 -0.04031,-0.0583 -0.03123,-0.15027 0.01968,-0.20549 0.05139,-0.0559 0.125566,-0.0539 0.165766,0.004" />
    <path
       inkscape:connector-curvature="0"
       id="path4318-3-69"
       style="fill:#646363;fill-opacity:1;fill-rule:nonzero;stroke:none;stroke-width:0.17410451"
       d="m 53.995724,189.15682 c -1.719907,-1.64945 -3.334455,-3.50049 -5.041394,-5.12769 l 0.03929,-0.0644 c 1.71045,1.62986 3.32465,3.48124 5.041701,5.12773 1.918437,1.83982 4.094318,3.37218 5.730103,5.66107 l 3.4e-5,-3.8e-4 -0.04872,0.0546 c -1.625562,-2.27566 -3.79761,-3.80706 -5.721001,-5.65093" />
    <path
       inkscape:connector-curvature="0"
       id="path4322-5-37"
       style="fill:#646363;fill-opacity:1;fill-rule:nonzero;stroke:none;stroke-width:0.17410451"
       d="m 48.783885,184.29401 c -0.916867,0.86071 -2.375626,1.3174 -3.495879,1.20625 l 0.0054,-0.0807 c 1.102118,0.11047 2.552568,-0.3447 3.450959,-1.19068 0.01701,-0.0157 0.03403,-0.0326 0.05056,-0.0502 0.382421,-0.41198 0.579461,-1.29207 0.589027,-2.19208 0.0108,-0.89985 -0.165586,-1.8184 -0.504427,-2.3046 -0.02446,-0.0349 -0.04954,-0.0677 -0.07566,-0.0984 l 0.04448,-0.0593 c 0.02781,0.0328 0.05453,0.0677 0.08041,0.10477 0.356306,0.51401 0.529942,1.44509 0.520047,2.35877 -0.01107,0.91312 -0.205013,1.8099 -0.611748,2.25201 -0.01729,0.0189 -0.03499,0.0369 -0.05309,0.0541" />
    <path
       inkscape:connector-curvature="0"
       id="path4326-6-4"
       style="fill:#646363;fill-opacity:1;fill-rule:nonzero;stroke:none;stroke-width:0.17410451"
       d="m 48.675389,184.40437 c -0.69052,0.55695 -1.897124,0.61865 -2.619664,0.22857 l 0.02609,-0.0741 c 0.696328,0.38018 1.895819,0.31726 2.55792,-0.2227 0.04756,-0.0387 0.0918,-0.0802 0.132398,-0.12383 0.830435,-0.88607 0.286021,-2.92312 -0.289013,-3.80866 l 0.05077,-0.0509 c 0.58242,0.90717 1.153716,2.96382 0.280711,3.92063 -0.04264,0.0466 -0.08927,0.0906 -0.139238,0.13103" />
    <path
       inkscape:connector-curvature="0"
       id="path4330-2-52"
       style="fill:#646363;fill-opacity:1;fill-rule:nonzero;stroke:none;stroke-width:0.17410451"
       d="m 48.812564,184.17352 c -0.481393,0.24262 -1.243585,-0.36377 -1.620445,-0.63188 l 0.03218,-0.071 c 0.374318,0.27517 1.142503,0.85444 1.562951,0.62759 0.05822,-0.0305 0.107129,-0.068 0.147814,-0.11217 0.26427,-0.27982 0.196834,-0.86757 0.02125,-1.46681 -0.174258,-0.59807 -0.446906,-1.196 -0.558347,-1.49859 l 0.05924,-0.0338 c 0.108885,0.29633 0.383652,0.89851 0.560301,1.50456 0.174627,0.60418 0.261845,1.22361 -0.0397,1.55596 -3.26e-4,1.5e-4 -5.61e-4,8.6e-4 -6.84e-4,8.6e-4 -0.04592,0.0497 -0.100364,0.0917 -0.164247,0.12523" />
    <path
       inkscape:connector-curvature="0"
       id="path4334-9-5"
       style="fill:#646363;fill-opacity:1;fill-rule:nonzero;stroke:none;stroke-width:0.17410451"
       d="m 59.833866,194.85926 c -0.05583,0.0565 -0.137708,0.0462 -0.183421,-0.0234 -0.05965,-0.0917 -0.120414,-0.18169 -0.181713,-0.27095 -0.376081,-0.54078 -0.792682,-1.026 -1.27935,-1.38965 l 3.25e-4,2.2e-4 c -0.06191,-0.0462 -0.08199,-0.14631 -0.04483,-0.22314 0.03669,-0.0769 0.116552,-0.10184 0.178303,-0.0558 0.51821,0.38722 0.954531,0.89789 1.34205,1.45561 0.06375,0.0918 0.125798,0.18444 0.187282,0.27842 0.04428,0.068 0.03745,0.16781 -0.01592,0.22484 -6.32e-4,0.002 -0.0014,0.003 -0.0027,0.003" />
    <path
       inkscape:connector-curvature="0"
       id="path4338-1-4"
       style="fill:#646363;fill-opacity:1;fill-rule:nonzero;stroke:none;stroke-width:0.17410451"
       d="m 45.328552,185.22364 c 0.151342,0.0928 0.213421,0.321 0.13872,0.51022 -0.07451,0.18888 -0.257682,0.2665 -0.408817,0.17314 -0.151342,-0.0928 -0.21354,-0.32141 -0.138875,-0.51025 0.07451,-0.18887 0.257509,-0.26632 0.408972,-0.17311" />
    <path
       inkscape:connector-curvature="0"
       id="path4342-2-7"
       style="fill:#646363;fill-opacity:1;fill-rule:nonzero;stroke:none;stroke-width:0.17410451"
       d="m 47.432002,183.06844 c 0.151463,0.0932 0.213535,0.32141 0.138678,0.51062 -0.07448,0.18867 -0.257526,0.26651 -0.408818,0.17313 -0.151306,-0.0932 -0.213535,-0.32141 -0.138835,-0.51065 0.07464,-0.18864 0.257492,-0.26612 0.408975,-0.1731" />
    <path
       inkscape:connector-curvature="0"
       id="path4346-7-4"
       style="fill:#646363;fill-opacity:1;fill-rule:nonzero;stroke:none;stroke-width:0.17410451"
       d="m 48.496915,181.42573 c -0.144377,0.10894 -0.331952,0.0512 -0.419382,-0.12922 -0.08731,-0.17999 -0.04086,-0.41427 0.103351,-0.52324 0.144527,-0.10893 0.332246,-0.0509 0.419402,0.12902 0.08729,0.18017 0.041,0.41448 -0.103378,0.52343" />
    <path
       inkscape:connector-curvature="0"
       id="path4306-4"
       style="fill:#646363;fill-opacity:1;fill-rule:nonzero;stroke:none;stroke-width:0.35277775"
       d="m 172.59842,11.132465 c -0.12431,-0.0091 -0.21761,-0.111152 -0.20817,-0.228099 0.008,-0.116861 0.11611,-0.204449 0.2389,-0.195566 0.12477,0.0091 0.21804,0.111701 0.20888,0.228433 -0.008,0.116645 -0.11584,0.204231 -0.2398,0.194998" />
    <path
       inkscape:connector-curvature="0"
       id="path4310-3"
       style="fill:#646363;fill-opacity:1;fill-rule:nonzero;stroke:none;stroke-width:0.35277775"
       d="m 174.0762,20.516624 c -0.14692,-0.01102 -0.25535,-0.14429 -0.24404,-0.297279 0.0108,-0.153457 0.1384,-0.269109 0.28402,-0.25803 0.14704,0.01004 0.25568,0.14359 0.24526,0.297219 -0.0112,0.152907 -0.13912,0.268773 -0.28528,0.258135" />
    <path
       inkscape:connector-curvature="0"
       id="path4314-0"
       style="fill:#646363;fill-opacity:1;fill-rule:nonzero;stroke:none;stroke-width:0.35277775"
       d="m 174.62079,22.082598 c -0.13778,-0.0097 -0.24259,-0.14177 -0.23129,-0.295636 0.0116,-0.153622 0.1335,-0.270199 0.27165,-0.2595 0.13939,0.01058 0.24241,0.143258 0.23129,0.295636 -0.0109,0.153963 -0.13247,0.269825 -0.27137,0.259277" />
    <path
       inkscape:connector-curvature="0"
       id="path4318-7"
       style="fill:#646363;fill-opacity:1;fill-rule:nonzero;stroke:none;stroke-width:0.35277775"
       d="m 154.0609,17.715973 c 4.86987,-0.626119 9.82863,-0.824834 14.64921,-1.45884 l 0.0193,0.145505 c -4.82962,0.636196 -9.78827,0.833921 -14.64976,1.459273 -5.43196,0.698428 -10.88357,2.203188 -16.43663,1.872967 l 4.4e-4,5.5e-4 0.008,-0.147988 c 5.51972,0.329516 10.96397,-1.170355 16.40906,-1.871479" />
    <path
       inkscape:connector-curvature="0"
       id="path4322-8"
       style="fill:#646363;fill-opacity:1;fill-rule:nonzero;stroke:none;stroke-width:0.35277775"
       d="m 168.64467,15.644442 c 0.36976,-2.570583 2.12589,-5.487112 4.06544,-7.133149 l 0.0946,0.112309 c -1.90958,1.617955 -3.65433,4.519273 -4.01328,7.041403 -0.007,0.04736 -0.0128,0.09618 -0.0168,0.14521 -0.0864,1.14029 0.72345,2.586314 1.85968,3.758541 1.13402,1.173979 2.59227,2.073139 3.75799,2.157069 0.0839,0.0057 0.1661,0.008 0.24728,0.0057 l 0.004,0.147259 c -0.0867,0.0022 -0.17411,6.1e-5 -0.26304,-0.0063 -1.22933,-0.09178 -2.69921,-1.011425 -3.85238,-2.201755 -1.15052,-1.191523 -1.98678,-2.654037 -1.89991,-3.871875 0.004,-0.05184 0.009,-0.103176 0.0159,-0.154361" />
    <path
       inkscape:connector-curvature="0"
       id="path4326-68"
       style="fill:#646363;fill-opacity:1;fill-rule:nonzero;stroke:none;stroke-width:0.35277775"
       d="m 168.67753,15.329316 c 0.39528,-1.818636 2.25221,-3.824753 3.91057,-4.477117 l 0.053,0.136959 c -1.60363,0.623229 -3.4476,2.619563 -3.81901,4.370978 -0.0268,0.125692 -0.0446,0.249664 -0.0541,0.370632 -0.19865,2.465152 3.2812,4.214429 5.3368,4.434525 l -0.0162,0.146532 c -2.09514,-0.236121 -5.64317,-1.967666 -5.46674,-4.591734 0.009,-0.128057 0.0274,-0.259006 0.0557,-0.390775" />
    <path
       inkscape:connector-curvature="0"
       id="path4330-8"
       style="fill:#646363;fill-opacity:1;fill-rule:nonzero;stroke:none;stroke-width:0.35277775"
       d="m 168.75282,15.845145 c 0.46191,-1.080626 2.46065,-1.518242 3.40833,-1.775386 l 0.0387,0.142821 c -0.95264,0.243984 -2.92628,0.726057 -3.31059,1.689083 -0.0545,0.132169 -0.0849,0.258417 -0.0936,0.38022 -0.066,0.781725 0.79424,1.429601 1.84263,1.919558 1.04479,0.490554 2.2473,0.823816 2.81323,1.034839 l -0.0517,0.137992 c -0.55384,-0.207065 -1.76515,-0.54239 -2.824,-1.039386 -1.05322,-0.497826 -1.98569,-1.15483 -1.92717,-2.063556 3.5e-4,-7.12e-4 -4.5e-4,-0.0022 3.3e-4,-0.0028 0.0101,-0.13723 0.0438,-0.278159 0.1033,-0.42329" />
    <path
       inkscape:connector-curvature="0"
       id="path4334-4"
       style="fill:#646363;fill-opacity:1;fill-rule:nonzero;stroke:none;stroke-width:0.35277775"
       d="m 137.39799,19.708268 c 0.0173,-0.161724 0.16173,-0.279389 0.32429,-0.262741 0.2131,0.02268 0.42568,0.04128 0.63821,0.05812 1.29532,0.09463 2.58453,0.05313 3.83065,-0.256559 l -8.4e-4,2.21e-4 c 0.15844,-0.03939 0.31876,0.05715 0.35742,0.215265 0.0395,0.157439 -0.0567,0.317054 -0.21467,0.356482 -1.32688,0.329675 -2.68027,0.370047 -4.01561,0.271892 -0.21965,-0.01618 -0.43783,-0.0362 -0.65671,-0.05882 -0.15805,-0.01661 -0.27481,-0.155916 -0.26212,-0.314466 -0.001,-0.003 -7.4e-4,-0.0058 -4e-4,-0.0086" />
    <path
       inkscape:connector-curvature="0"
       id="path4338-3"
       style="fill:#646363;fill-opacity:1;fill-rule:nonzero;stroke:none;stroke-width:0.35277775"
       d="m 172.99899,8.931644 c -0.36156,0.122377 -0.75313,-0.07185 -0.87539,-0.434389 -0.12211,-0.361778 0.0725,-0.754068 0.43438,-0.875401 0.36156,-0.122378 0.75385,0.07218 0.87567,0.434171 0.12211,0.361776 -0.0724,0.753566 -0.43466,0.875619" />
    <path
       inkscape:connector-curvature="0"
       id="path4342-1"
       style="fill:#646363;fill-opacity:1;fill-rule:nonzero;stroke:none;stroke-width:0.35277775"
       d="m 172.38174,15.061121 c -0.36227,0.122057 -0.75384,-0.07218 -0.87583,-0.43494 -0.12189,-0.361491 0.0722,-0.753846 0.43439,-0.875394 0.36199,-0.121833 0.75384,0.07218 0.87611,0.434724 0.1216,0.361715 -0.0726,0.753288 -0.43467,0.87561" />
    <path
       inkscape:connector-curvature="0"
       id="path4346-4"
       style="fill:#646363;fill-opacity:1;fill-rule:nonzero;stroke:none;stroke-width:0.35277775"
       d="m 172.77499,18.873377 c 0.0922,-0.370594 0.46709,-0.595894 0.83819,-0.503598 0.37037,0.09195 0.59562,0.467303 0.50365,0.837675 -0.0925,0.370818 -0.46786,0.596059 -0.83795,0.503881 -0.37059,-0.09223 -0.59611,-0.467362 -0.50389,-0.837958" />
  </g>
</svg>
