<?xml version="1.0" encoding="UTF-8" standalone="yes"?>
<svg xmlns="http://www.w3.org/2000/svg" viewBox="0 0 128 128" width="100" height="100" fill="#000000">
  <path d="M 61 1 C 43.7 1 29.499609 14.299219 28.099609 31.199219 C 19.599609 32.599219 13 40.1 13 49 L 13 67.099609 C 13 83.999609 22.7 99 38 106 L 38 124 C 38 125.7 39.3 127 41 127 L 101 127 C 102.7 127 104 125.7 104 124 L 104 105.19922 C 110.5 98.299219 114 89.400391 114 79.900391 L 114 34 C 114 15.8 99.2 1 81 1 L 61 1 z M 61 7 L 81 7 C 95.9 7 108 19.1 108 34 L 108 79.900391 C 108 87.500391 105.30078 94.700391 100.30078 100.40039 C 99.900781 100.80039 99.400781 101.09961 98.800781 101.09961 L 42 101.09961 C 41.7 101.09961 41.399219 101.00039 41.199219 100.90039 C 27.699219 95.000391 19 81.899609 19 67.099609 L 19 49 C 19 43.9 22.199609 39.600781 26.599609 37.800781 C 27.299609 37.500781 28 37.999219 28 38.699219 L 28 43 L 28 49.900391 L 28 63 C 28 64.7 29.3 66 31 66 C 32.7 66 34 64.7 34 63 L 34 50 L 34 43 L 34 34 C 34 19.1 46.1 7 61 7 z M 61 13 C 49.4 13 40 22.4 40 34 C 40 35.7 41.3 37 43 37 C 44.7 37 46 35.7 46 34 C 46 25.7 52.7 19 61 19 C 62.7 19 64 17.7 64 16 C 64 14.3 62.7 13 61 13 z M 43 43 A 3 3 0 0 0 40 46 A 3 3 0 0 0 43 49 A 3 3 0 0 0 46 46 A 3 3 0 0 0 43 43 z M 45 107 L 57 107 C 57.6 107 58 107.4 58 108 L 58 120 C 58 120.6 57.6 121 57 121 L 45 121 C 44.4 121 44 120.6 44 120 L 44 108 C 44 107.4 44.4 107 45 107 z"/>
</svg>