<?xml version="1.0" encoding="UTF-8" standalone="yes"?>
<svg xmlns="http://www.w3.org/2000/svg" viewBox="0 0 80 80" width="100" height="100" fill="#000000">
  <path d="M 38.726562 9 C 33.88554 9 29.535633 11.649371 26.378906 14.224609 C 26.054741 14.489061 25.75024 14.751826 25.451172 15.013672 C 25.281456 15.007625 25.113769 15 24.9375 15 C 20.841459 15 17.190891 17.234099 14.544922 19.392578 C 11.898952 21.551057 10.210936 23.71875 10.210938 23.71875 L 9.2851562 24.908203 L 10.740234 25.298828 C 10.740234 25.298828 11.241486 25.426428 11.818359 25.964844 C 12.395233 26.503259 13 27.383705 13 29.126953 L 13 36 L 13.011719 36 C 13.039695 36.50872 13.180118 36.925193 13.300781 37.335938 C 13.367731 37.563842 13.432233 37.77538 13.474609 37.931641 C 13.516989 38.087901 13.521484 38.24554 13.521484 38.083984 C 13.521484 39.045532 14.2196 39.704055 15.070312 40.029297 C 15.20046 43.57928 16.999915 46.691348 19.716797 48.601562 L 19.716797 48.658203 C 18.916468 49.44998 16.835895 51.385732 14.810547 52.203125 L 14.808594 52.203125 C 12.52511 53.1253 9.923434 54.351059 7.8242188 55.871094 C 5.7250034 57.391129 4 59.266478 4 61.613281 L 4 65.914062 L 4 67 L 13.775391 67 L 13.775391 71 L 66.224609 71 L 66.224609 67 L 75.865234 67 L 75.865234 65.914062 L 75.865234 61.613281 C 75.865234 59.266478 74.140231 57.391129 72.041016 55.871094 C 69.9418 54.351059 67.338217 53.1253 65.054688 52.203125 C 63.051955 51.39486 60.986821 49.483031 60.166016 48.673828 C 62.946806 46.77144 64.798347 43.627376 64.929688 40.027344 C 65.7804 39.702102 66.478516 39.043579 66.478516 38.082031 C 66.478516 38.243587 66.483021 38.087931 66.525391 37.931641 C 66.567771 37.77538 66.632267 37.563842 66.699219 37.335938 C 66.819732 36.925721 66.960035 36.508133 66.988281 36 L 67 36 L 67 35.832031 L 67 26.832031 C 67 21.127186 63.553228 18.359035 60.462891 18.101562 C 60.261617 17.819409 59.992383 17.34433 58.998047 16.671875 C 57.737345 15.819281 55.753904 15 52.9375 15 C 52.812227 15 52.686202 15.007657 52.560547 15.011719 C 50.996151 13.751636 49.203398 13.222154 47.603516 13.107422 C 47.331339 12.67697 46.848064 11.996623 45.841797 11.210938 C 44.404272 10.088527 42.089138 9 38.726562 9 z M 38.726562 11 C 41.66599 11 43.487353 11.911471 44.611328 12.789062 C 45.735303 13.666654 46.103516 14.441406 46.103516 14.441406 L 46.378906 15 L 47 15 C 48.332508 15 50.123557 15.509207 51.521484 16.738281 C 52.919411 17.967356 54 19.889636 54 23 C 54 25.790852 53.334261 29.861149 53.142578 31.001953 C 53.136589 31.001916 53.130997 31 53.125 31 C 53.040922 31 53.05559 31.020743 53 31.027344 L 53 28 C 53 24.57812 51.601408 22.275725 50.195312 20.914062 C 48.789218 19.5524 47.318359 19.052734 47.318359 19.052734 L 46.746094 18.859375 L 46.308594 19.277344 C 46.308594 19.277344 45.681316 19.894668 44.160156 20.589844 C 42.638997 21.285019 40.289961 22 37 22 C 35.200387 22 32.826634 22.636647 30.769531 24.074219 C 28.717851 25.508001 27.012899 27.852966 27.003906 31.029297 C 26.947286 31.022296 26.961862 31 26.875 31 C 26.851013 31 26.828558 31.007225 26.804688 31.007812 C 26.60088 30.041314 26.273436 28.158882 26.273438 25.751953 C 26.273438 23.131832 25.337568 21.394667 24.353516 20.384766 C 23.938597 19.958948 23.842511 20.029311 23.480469 19.818359 C 24.170718 19.004045 25.455427 17.561248 27.644531 15.775391 C 30.616804 13.350629 34.631585 11 38.726562 11 z M 54.412109 17.095703 C 56.018442 17.302395 57.132258 17.823178 57.878906 18.328125 C 58.836204 18.975531 59.144531 19.515625 59.144531 19.515625 L 59.435547 20 L 60 20 C 62.055551 20 65 21.648705 65 26.832031 L 65 31 C 65 25.230318 60.515625 22.476564 60.515625 22.476562 L 59.761719 22.023438 L 59.216797 22.710938 C 59.216797 22.710938 58.16287 24.045412 55.917969 24.976562 C 55.965676 24.292081 56 23.618471 56 23 C 56 20.564631 55.375112 18.60786 54.412109 17.095703 z M 23.185547 17.1875 C 21.970439 18.447787 21.210937 19.384766 21.210938 19.384766 L 20.308594 20.542969 L 21.716797 20.958984 C 21.716797 20.958984 22.266975 21.109198 22.919922 21.779297 C 23.572869 22.449395 24.273437 23.588075 24.273438 25.751953 C 24.273438 25.771916 24.275347 25.788686 24.275391 25.808594 C 24.023608 25.823995 23.765997 25.832031 23.5 25.832031 C 21.957767 25.832031 19.959333 26.371241 18.212891 27.591797 C 16.466449 28.812352 15 30.829719 15 33.544922 L 15 29.126953 C 15 26.882201 14.104767 25.365491 13.181641 24.503906 C 12.895672 24.237002 12.85461 24.315876 12.585938 24.152344 C 13.060874 23.579613 13.835295 22.551146 15.808594 20.941406 C 17.838834 19.285215 20.452794 17.699233 23.185547 17.1875 z M 46.998047 21.15625 C 47.240955 21.25027 47.873808 21.448146 48.804688 22.349609 C 49.898592 23.408947 51 25.10588 51 28 L 51 34.304688 L 52.505859 33.423828 C 52.763271 33.273148 53.000659 33.139974 53.167969 33.054688 C 53.189159 33.043886 53.194211 33.042323 53.212891 33.033203 C 53.67253 33.079553 53.99845 33.398087 53.998047 33.798828 L 53.998047 33.800781 C 53.998047 33.875921 53.879161 34.462857 53.726562 34.982422 C 53.650262 35.242205 53.570921 35.502206 53.505859 35.742188 C 53.440799 35.982169 53.373047 36.146642 53.373047 36.5 C 53.373047 36.765198 53.156381 37 52.8125 37 L 51 37 L 51 38.367188 C 51 43.789366 47.089008 48.269071 41.941406 49.1875 L 41.658203 49.236328 L 41.443359 49.431641 C 41.05178 49.78762 40.558016 50 40 50 C 39.441984 50 38.948039 49.788155 38.556641 49.431641 L 38.34375 49.236328 L 38.058594 49.185547 C 32.911121 48.268058 29 43.789367 29 38.367188 L 29 37 L 27.1875 37 C 26.845222 37 26.625 36.764393 26.625 36.5 C 26.625 36.146642 26.55725 35.982169 26.492188 35.742188 C 26.427128 35.502206 26.347783 35.242205 26.271484 34.982422 C 26.118886 34.462857 26 33.875925 26 33.800781 C 26 33.399535 26.3274 33.079612 26.787109 33.033203 C 26.805789 33.042303 26.810841 33.043886 26.832031 33.054688 C 26.999341 33.139978 27.236729 33.273148 27.494141 33.423828 L 29 34.304688 L 29 31.052734 C 29 28.556878 30.243166 26.882522 31.914062 25.714844 C 33.584959 24.547166 35.711613 24 37 24 C 40.581039 24 43.231096 23.214981 44.992188 22.410156 C 46.300865 21.812086 46.645356 21.446204 46.998047 21.15625 z M 60.009766 24.673828 C 60.769769 25.208156 63 26.954385 63 31 L 63 36.177734 L 64.466797 35.40625 C 64.482407 35.39805 64.487203 35.396252 64.501953 35.388672 C 64.780333 35.43389 65 35.597781 65 35.832031 C 65 35.846501 64.90589 36.340545 64.779297 36.771484 C 64.715997 36.986954 64.651014 37.204245 64.595703 37.408203 C 64.540393 37.612161 64.478516 37.745975 64.478516 38.082031 C 64.478516 38.208746 64.377495 38.332031 64.177734 38.332031 L 63 38.332031 L 63 39.640625 C 63 44.078782 59.799319 47.739736 55.587891 48.490234 L 55.304688 48.541016 L 55.091797 48.736328 C 54.794927 49.006498 54.420599 49.166016 54 49.166016 C 53.579401 49.166016 53.205073 49.006498 52.908203 48.736328 L 52.695312 48.541016 L 52.412109 48.490234 C 51.296768 48.291631 50.254992 47.884877 49.322266 47.316406 C 51.408586 45.126175 52.737327 42.206332 52.892578 38.96875 C 54.234864 38.92111 55.373047 37.860004 55.373047 36.5 C 55.373047 36.643858 55.38538 36.45789 55.4375 36.265625 C 55.48963 36.073356 55.566533 35.819092 55.646484 35.546875 C 55.806386 35.00244 55.998047 34.450638 55.998047 33.800781 C 55.998872 32.98214 55.628346 32.256255 55.056641 31.746094 C 55.165951 31.119941 55.469386 29.247058 55.705078 27.181641 C 58.045192 26.435672 59.310334 25.363112 60.009766 24.673828 z M 24.349609 27.804688 C 24.482186 29.631945 24.757269 31.060635 24.916016 31.769531 C 24.359211 32.278599 24 32.995079 24 33.800781 C 24 34.450638 24.193614 35.00244 24.353516 35.546875 C 24.433466 35.819092 24.510374 36.073356 24.5625 36.265625 C 24.61463 36.457894 24.625 36.643858 24.625 36.5 C 24.625 37.860791 25.765491 38.921144 27.107422 38.96875 C 27.262601 42.204794 28.591017 45.121452 30.675781 47.310547 C 29.743049 47.879734 28.703904 48.292846 27.587891 48.492188 L 27.304688 48.542969 L 27.091797 48.736328 C 26.794927 49.006498 26.420599 49.167969 26 49.167969 C 25.579401 49.167969 25.205073 49.006498 24.908203 48.736328 L 24.695312 48.542969 L 24.412109 48.492188 C 20.200686 47.741687 17 44.078782 17 39.640625 L 17 38.333984 L 15.822266 38.333984 C 15.622505 38.333984 15.521484 38.210699 15.521484 38.083984 C 15.521484 37.747928 15.459604 37.612161 15.404297 37.408203 C 15.348987 37.204245 15.284002 36.988906 15.220703 36.773438 C 15.094106 36.342498 15 35.848457 15 35.833984 C 15 35.598507 15.220717 35.435076 15.5 35.390625 C 15.51373 35.397725 15.518733 35.39862 15.533203 35.40625 L 17 36.181641 L 17 33.544922 C 17 31.523125 17.997114 30.183116 19.357422 29.232422 C 20.71773 28.281728 22.469233 27.832031 23.5 27.832031 C 23.790546 27.832031 24.072495 27.820596 24.349609 27.804688 z M 34.5 33 A 1.5 1.5 0 0 0 33 34.5 A 1.5 1.5 0 0 0 34.5 36 A 1.5 1.5 0 0 0 36 34.5 A 1.5 1.5 0 0 0 34.5 33 z M 45.5 33 A 1.5 1.5 0 0 0 44 34.5 A 1.5 1.5 0 0 0 45.5 36 A 1.5 1.5 0 0 0 47 34.5 A 1.5 1.5 0 0 0 45.5 33 z M 21.5 35 A 1.5 1.5 0 0 0 20 36.5 A 1.5 1.5 0 0 0 21.5 38 A 1.5 1.5 0 0 0 23 36.5 A 1.5 1.5 0 0 0 21.5 35 z M 58.5 35 A 1.5 1.5 0 0 0 57 36.5 A 1.5 1.5 0 0 0 58.5 38 A 1.5 1.5 0 0 0 60 36.5 A 1.5 1.5 0 0 0 58.5 35 z M 32.21875 48.6875 C 32.266816 48.723996 32.312732 48.762995 32.361328 48.798828 L 32.361328 49.675781 C 31.729969 50.323659 29.044211 52.986729 26.349609 54.074219 C 25.882563 54.26276 25.394672 54.475335 24.910156 54.685547 C 24.102079 54.222171 23.274002 53.260828 22.685547 52.332031 C 22.063993 51.350993 21.764941 50.601554 21.716797 50.484375 L 21.716797 49.707031 C 22.38214 49.990633 23.077836 50.218453 23.804688 50.367188 C 24.413709 50.841048 25.161805 51.167969 26 51.167969 C 26.815717 51.167969 27.541424 50.852105 28.142578 50.400391 C 29.630627 50.104438 31.011527 49.514699 32.21875 48.6875 z M 47.787109 48.6875 C 48.991345 49.507509 50.364706 50.096724 51.847656 50.392578 C 52.450428 50.84868 53.179802 51.166016 54 51.166016 C 54.841331 51.166016 55.593053 50.84026 56.203125 50.363281 C 56.87819 50.224618 57.526047 50.019071 58.148438 49.763672 L 58.148438 50.482422 C 58.100797 50.598428 57.79981 51.350061 57.177734 52.332031 C 56.602547 53.239986 55.799835 54.177939 55.009766 54.652344 C 54.552719 54.454916 54.091646 54.252315 53.650391 54.074219 C 50.955789 52.986729 48.270031 50.323659 47.638672 49.675781 L 47.638672 48.802734 C 47.689135 48.765513 47.737217 48.725436 47.787109 48.6875 z M 34.361328 50.017578 C 35.325781 50.486621 36.358844 50.84035 37.443359 51.058594 C 38.147243 51.620412 39.022065 52 40 52 C 40.973713 52 41.842622 51.620911 42.544922 51.064453 C 43.633837 50.846244 44.670662 50.490565 45.638672 50.019531 L 45.638672 51.167969 C 45.589542 51.288093 45.034543 52.671882 43.994141 54.158203 C 42.909494 55.707731 41.435972 57.050781 40 57.050781 C 38.564028 57.050781 37.090506 55.707731 36.005859 54.158203 C 34.965457 52.671882 34.410459 51.288093 34.361328 51.167969 L 34.361328 50.017578 z M 19.869141 51.269531 C 19.966137 51.502562 20.322822 52.339676 20.996094 53.402344 C 21.469223 54.149114 22.065894 54.971746 22.828125 55.648438 C 21.257521 56.417409 19.702649 57.284889 18.326172 58.265625 L 16.724609 56.476562 L 16.724609 53.503906 C 17.943674 52.842214 19.02491 52.00564 19.869141 51.269531 z M 59.996094 51.269531 C 60.840683 52.005952 61.922896 52.842092 63.142578 53.503906 L 63.142578 56.476562 L 61.589844 58.207031 C 60.207222 57.230315 58.651966 56.369712 57.082031 55.605469 C 57.820916 54.936938 58.403942 54.133593 58.867188 53.402344 C 59.54047 52.339542 59.898716 51.502534 59.996094 51.269531 z M 32.625 52.201172 C 32.834477 52.689204 33.363895 53.871384 34.367188 55.304688 C 34.906404 56.075014 35.568276 56.876254 36.345703 57.544922 L 38.210938 62.207031 L 37.457031 69 L 31.207031 69 L 27.962891 64.685547 L 30.326172 61.378906 L 27.724609 58.476562 L 27.724609 55.648438 C 29.717876 54.711446 31.451504 53.286569 32.625 52.201172 z M 47.375 52.201172 C 48.548053 53.286158 50.267672 54.68391 52.275391 55.630859 L 52.275391 58.476562 L 49.673828 61.378906 L 52.037109 64.685547 L 48.792969 69 L 42.542969 69 L 41.789062 62.207031 L 43.654297 57.544922 C 44.431723 56.876254 45.093596 56.075014 45.632812 55.304688 C 46.636105 53.871384 47.165523 52.689204 47.375 52.201172 z M 14.724609 54.414062 L 14.724609 57.242188 L 16.757812 59.509766 C 15.024803 61.046486 13.775391 62.842012 13.775391 64.955078 L 13.775391 65 L 6 65 L 6 61.613281 C 6 60.307084 7.1257622 58.847903 8.9980469 57.492188 C 10.639303 56.303758 12.746525 55.255894 14.724609 54.414062 z M 65.142578 54.416016 C 67.119984 55.257687 69.226584 56.304231 70.867188 57.492188 C 72.73947 58.847903 73.865234 60.307084 73.865234 61.613281 L 73.865234 65 L 66.224609 65 L 66.224609 64.955078 C 66.224609 62.812159 64.937882 60.996545 63.166016 59.445312 L 65.142578 57.242188 L 65.142578 54.416016 z M 25.724609 56.515625 L 25.724609 59.242188 L 27.767578 61.521484 L 25.484375 64.714844 L 28.705078 69 L 15.775391 69 L 15.775391 64.955078 C 15.775391 63.331755 17.146908 61.581379 19.363281 59.976562 C 21.196958 58.648848 23.512154 57.476987 25.724609 56.515625 z M 54.275391 56.515625 C 56.488006 57.476951 58.803142 58.64875 60.636719 59.976562 C 62.852972 61.581497 64.224609 63.332299 64.224609 64.955078 L 64.224609 69 L 51.294922 69 L 54.515625 64.714844 L 52.232422 61.521484 L 54.275391 59.242188 L 54.275391 56.515625 z"/>
</svg>